<svg width="89" height="90" viewBox="0 0 89 90" fill="none" xmlns="http://www.w3.org/2000/svg">
<rect x="0.0664062" y="0.958008" width="88.2183" height="88.2183" rx="19.1779" fill="url(#paint0_linear_1333_1136)"/>
<path d="M74.2779 74.601C74.5779 74.5961 74.8607 74.4533 75.0426 74.2121C75.2246 73.9734 75.2885 73.6633 75.2123 73.3705L65.3763 38.9139C65.2657 38.4857 64.8845 38.1829 64.4419 38.1756H47.5241L46.393 40.1445H51.1634L49.8355 43.2948L47.2782 43.6886C46.9487 43.7476 46.6708 43.9691 46.5405 44.2792L45.5569 46.6419C45.3823 47.0677 45.5249 47.5575 45.9011 47.8233L48.4093 49.6445L46.3929 52.3518L43.934 51.958C43.5578 51.8867 43.1742 52.0393 42.9504 52.3518L37.8357 59.7355L37.1964 59.3909V57.3728C37.1915 57.1119 37.0857 56.8658 36.9013 56.6836L34.8358 54.6163L37.4915 50.58C37.7153 50.2305 37.6956 49.7777 37.4424 49.4478L35.9178 47.282L37.2456 46.4452C37.4842 46.2877 37.644 46.0342 37.6809 45.7512C37.7202 45.4681 37.6317 45.1827 37.4424 44.9685L35.5243 42.8519L35.9669 40.1938H37.0981L36.0653 38.2249H23.131C22.6884 38.2323 22.3072 38.535 22.1966 38.9633L12.3606 73.4198C12.3016 73.7053 12.3729 74.0006 12.5524 74.227C12.7344 74.4559 13.0049 74.5913 13.2951 74.6011L74.2779 74.601ZM48.0649 45.5592L50.6222 45.1654C50.9714 45.1236 51.2714 44.8971 51.4091 44.5747L53.278 40.1447H63.7037L68.8184 58.1114L65.7693 56.6346L63.6545 52.9429C63.5119 52.714 63.2808 52.554 63.0152 52.4999L53.7691 50.4325L50.179 48.562L47.5725 46.6423L48.0649 45.5592ZM44.2288 54.0259L46.5403 54.4197C46.9018 54.4714 47.2608 54.3212 47.4747 54.0259L49.9337 50.6787L52.9829 52.2538L53.2288 52.3523L62.1305 54.3212L64.196 57.8653C64.287 58.0326 64.4223 58.168 64.5895 58.2591L69.5074 60.671L72.9008 72.632H49.5407C49.5358 72.4942 49.5014 72.3613 49.4423 72.2382L48.1145 69.1371C48.0284 68.9279 47.871 68.7532 47.6719 68.6449L42.2129 65.6423L42.9998 63.8211C43.194 63.3707 43.0268 62.844 42.6063 62.5905L39.508 60.7693L44.2288 54.0259ZM23.8683 40.1451H33.9995L33.5077 42.9508C33.456 43.2535 33.547 43.5612 33.7536 43.7876L35.229 45.4119L33.9504 46.1503C33.7192 46.3004 33.5618 46.5392 33.5151 46.8099C33.4684 47.0806 33.5372 47.3587 33.7045 47.5778L35.5241 50.0389L33.0651 53.7307H28.0488L25.7865 50.8758L24.852 48.8084C24.7217 48.4983 24.4439 48.2768 24.1143 48.2178L21.6554 47.7255L23.8683 40.1451ZM21.1634 49.6451L23.2781 50.0389L24.065 51.7617L24.1634 51.9586L26.7699 55.3058C26.9568 55.5544 27.2469 55.6996 27.5568 55.6996H33.2124L35.278 57.7669V59.9819C35.2829 60.329 35.4698 60.6465 35.7698 60.8187L40.9336 63.8213L40.1467 65.6426C39.9303 66.12 40.1246 66.6811 40.5893 66.9223L46.5401 70.2203L47.5728 72.6322H14.6223L21.1634 49.6451Z" fill="url(#paint1_linear_1333_1136)"/>
<path d="M41.6717 15.5332C38.9668 15.5332 36.3603 16.9607 34.5407 19.4711C33.3776 21.1078 32.6793 23.0299 32.5244 25.0333C32.367 27.0367 32.758 29.045 33.6555 30.8416C34.3244 32.1017 35.0965 33.3053 35.967 34.4349C36.5866 35.2569 37.162 36.111 37.6883 36.9945C38.8686 39.0618 39.8891 41.2178 40.7374 43.4425C40.8752 43.8141 41.2243 44.0676 41.6227 44.0824C42.0087 44.075 42.353 43.8461 42.5079 43.4917C43.4668 41.289 44.566 39.1527 45.8029 37.0929C46.3193 36.2757 46.8775 35.4882 47.475 34.7301C48.4045 33.5759 49.2258 32.3403 49.9339 31.0384C50.9249 29.0646 51.2962 26.8396 50.9987 24.6515C50.6987 22.4635 49.7446 20.4158 48.2618 18.7816C46.6216 16.8152 44.2292 15.6341 41.6717 15.5332ZM48.2619 30.1033C47.6078 31.2994 46.8505 32.4364 45.9996 33.4996C45.3652 34.3217 44.7726 35.1757 44.2292 36.0592C43.1472 37.8805 42.3111 39.4556 41.7702 40.637C41.2292 39.4556 40.4916 37.8313 39.4587 36.0592C38.8883 35.1068 38.2637 34.1863 37.5899 33.3028C36.7784 32.2642 36.0555 31.1616 35.426 30.0048C34.6883 28.5256 34.3686 26.8742 34.4989 25.2252C34.6292 23.5787 35.2047 21.9987 36.1636 20.6524C37.6391 18.6343 39.6062 17.5021 41.7209 17.5021C43.7446 17.571 45.6406 18.5013 46.9339 20.0617C49.4052 22.8133 49.934 26.8024 48.2619 30.1033Z" fill="url(#paint2_linear_1333_1136)"/>
<path d="M41.819 20.9479C39.9428 20.9676 38.342 22.3114 37.9953 24.1548C37.6486 26.0006 38.6494 27.8342 40.3903 28.5381C42.1288 29.2395 44.1206 28.6144 45.1509 27.0466C46.1788 25.4764 45.9575 23.3967 44.6223 22.08C43.8796 21.3392 42.8689 20.9307 41.819 20.9479ZM41.819 26.8547C40.7321 26.8547 39.8518 25.9736 39.8518 24.8858C39.8518 23.7979 40.7321 22.9168 41.819 22.9168C42.9059 22.9168 43.7862 23.7979 43.7862 24.8858C43.7862 25.9736 42.9059 26.8547 41.819 26.8547Z" fill="url(#paint3_linear_1333_1136)"/>
<defs>
<linearGradient id="paint0_linear_1333_1136" x1="44.1756" y1="89.1763" x2="44.1756" y2="0.958008" gradientUnits="userSpaceOnUse">
<stop stop-color="#262626"/>
<stop offset="1" stop-color="#1E1E1E"/>
</linearGradient>
<linearGradient id="paint1_linear_1333_1136" x1="43.7921" y1="15.5332" x2="43.7921" y2="74.6011" gradientUnits="userSpaceOnUse">
<stop stop-color="#FF9E00"/>
<stop offset="1" stop-color="#995F00"/>
</linearGradient>
<linearGradient id="paint2_linear_1333_1136" x1="43.7921" y1="15.5332" x2="43.7921" y2="74.6011" gradientUnits="userSpaceOnUse">
<stop stop-color="#FF9E00"/>
<stop offset="1" stop-color="#995F00"/>
</linearGradient>
<linearGradient id="paint3_linear_1333_1136" x1="43.7921" y1="15.5332" x2="43.7921" y2="74.6011" gradientUnits="userSpaceOnUse">
<stop stop-color="#FF9E00"/>
<stop offset="1" stop-color="#995F00"/>
</linearGradient>
</defs>
</svg>
