<svg width="89" height="90" viewBox="0 0 89 90" fill="none" xmlns="http://www.w3.org/2000/svg">
<rect x="0.740723" y="0.958008" width="88.2183" height="88.2183" rx="19.1779" fill="url(#paint0_linear_1333_1145)"/>
<path d="M76.0484 68.9288H73.6943V66.8569C73.6943 66.51 73.4139 66.2307 73.0657 66.2307H70.9489V37.6072C70.9489 37.2604 70.6685 36.981 70.3203 36.981H58.4883V28.8527L65.2671 33.3342C65.3718 33.4048 65.492 33.4386 65.6152 33.4386C65.7169 33.4386 65.8186 33.414 65.9141 33.3649C66.1175 33.2544 66.2469 33.0426 66.2469 32.8124V29.4359C66.2469 29.2272 66.1422 29.0307 65.9665 28.9141L45.8702 15.6294C45.7994 15.5833 45.7223 15.5526 45.6422 15.5373C45.6022 15.5281 45.5621 15.5373 45.5221 15.5373C45.482 15.5373 45.4419 15.5312 45.3988 15.5373C45.3187 15.5526 45.2417 15.5833 45.1708 15.6294L25.0745 28.9141C24.8989 29.0307 24.7941 29.2272 24.7941 29.4359V32.8124C24.7941 33.0426 24.9205 33.2544 25.1269 33.3649C25.2193 33.414 25.321 33.4386 25.4258 33.4386C25.546 33.4386 25.6692 33.4048 25.774 33.3342L31.9704 29.2364V36.9809H20.1384C19.7902 36.9809 19.5098 37.2602 19.5098 37.6071V66.2305H17.393C17.0448 66.2305 16.7644 66.5099 16.7644 66.8567V68.9286H14.4103C14.0621 68.9286 13.7817 69.208 13.7817 69.5548V73.9749C13.7817 74.3218 14.0621 74.6011 14.4103 74.6011H76.0567C76.4049 74.6011 76.6852 74.3218 76.6852 73.9749V69.5548C76.6852 69.208 76.4049 68.9286 76.0567 68.9286L76.0484 68.9288ZM69.6917 38.2339V66.2312H58.4884V38.2339H69.6917ZM26.049 29.7685L45.5166 16.898L64.9842 29.7685V31.6409L45.8652 19.0006C45.7943 18.9545 45.7173 18.9239 45.6372 18.9085C45.5971 18.9024 45.5602 18.9085 45.5201 18.9085C45.477 18.9085 45.4369 18.9024 45.3969 18.9085C45.3167 18.9239 45.2397 18.9545 45.1689 19.0006L26.0499 31.6409L26.049 29.7685ZM45.5166 20.2745L57.2287 28.019V66.2316H52.6407V53.06C52.6407 52.7131 52.3603 52.4338 52.0121 52.4338H38.4361C38.0879 52.4338 37.8075 52.7131 37.8075 53.06V66.2316H33.2195L33.2226 28.4056L45.5168 20.2773L45.5166 20.2745ZM39.0675 66.228V53.6827H44.5952V66.228H39.0675ZM45.8555 66.228V53.6827H51.3833V66.228H45.8555ZM20.7622 38.2308H31.9655V66.228H20.7622V38.2308ZM18.0137 67.4806H72.4346V68.9263L18.0137 68.9294V67.4806ZM75.4202 73.3464L15.0336 73.3525V70.1848H75.4234V73.3525L75.4202 73.3464ZM28.3265 42.8048H24.4009C24.0527 42.8048 23.7723 43.0841 23.7723 43.431V46.9517C23.7723 47.2986 24.0527 47.5779 24.4009 47.5779H28.3265C28.6747 47.5779 28.955 47.2986 28.955 46.9517V43.431C28.955 43.0841 28.6747 42.8048 28.3265 42.8048ZM27.6979 46.3255H25.0295V44.0572H27.6979V46.3255ZM28.3265 49.8463H24.4009C24.0527 49.8463 23.7723 50.1256 23.7723 50.4725V53.9933C23.7723 54.3401 24.0527 54.6195 24.4009 54.6195H28.3265C28.6747 54.6195 28.955 54.3401 28.955 53.9933V50.4725C28.955 50.1256 28.6747 49.8463 28.3265 49.8463ZM27.6979 53.3671H25.0295V51.0987H27.6979V53.3671ZM28.3265 56.8879H24.4009C24.0527 56.8879 23.7723 57.1672 23.7723 57.514V61.0348C23.7723 61.3817 24.0527 61.661 24.4009 61.661H28.3265C28.6747 61.661 28.955 61.3817 28.955 61.0348V57.514C28.955 57.1672 28.6747 56.8879 28.3265 56.8879ZM27.6979 60.4086H25.0295V58.1403H27.6979V60.4086ZM45.2274 46.1935C49.1036 46.1935 52.2589 43.0503 52.2589 39.1889C52.2589 35.3274 49.1036 32.1842 45.2274 32.1842C41.3512 32.1842 38.196 35.3274 38.196 39.1889C38.196 43.0503 41.3512 46.1935 45.2274 46.1935ZM45.2274 33.44C48.4104 33.44 50.9986 36.0184 50.9986 39.1892C50.9986 42.3601 48.4104 44.9385 45.2274 44.9385C42.0444 44.9385 39.4562 42.3601 39.4562 39.1892C39.4562 36.0184 42.0444 33.44 45.2274 33.44ZM41.154 39.1892C41.154 38.8424 41.4344 38.5631 41.7825 38.5631H44.5988V35.1436C44.5988 34.7967 44.8792 34.5174 45.2274 34.5174C45.5756 34.5174 45.8559 34.7967 45.8559 35.1436V39.1892C45.8559 39.536 45.5756 39.8154 45.2274 39.8154H41.7825C41.4343 39.8154 41.154 39.5361 41.154 39.1892ZM47.868 59.0244V60.7494C47.868 61.0963 47.5876 61.3756 47.2394 61.3756C46.8912 61.3756 46.6108 61.0963 46.6108 60.7494V59.0244C46.6108 58.6775 46.8912 58.3982 47.2394 58.3982C47.5876 58.3982 47.868 58.6775 47.868 59.0244ZM43.8069 59.1226V60.8477C43.8069 61.1945 43.5265 61.4738 43.1784 61.4738C42.8302 61.4738 42.5498 61.1945 42.5498 60.8477V59.1226C42.5498 58.7757 42.8302 58.4964 43.1784 58.4964C43.5265 58.4964 43.8069 58.7757 43.8069 59.1226ZM62.1284 47.5808H66.054C66.4021 47.5808 66.6825 47.3015 66.6825 46.9546V43.4338C66.6825 43.087 66.4021 42.8076 66.054 42.8076H62.1284C61.7802 42.8076 61.4998 43.087 61.4998 43.4338V46.9546C61.4998 47.3015 61.7802 47.5808 62.1284 47.5808ZM62.757 44.06H65.4253V46.3284H62.757V44.06ZM62.1284 54.6196H66.054C66.4021 54.6196 66.6825 54.3402 66.6825 53.9934V50.4726C66.6825 50.1258 66.4021 49.8464 66.054 49.8464H62.1284C61.7802 49.8464 61.4998 50.1258 61.4998 50.4726V53.9934C61.4998 54.3402 61.7802 54.6196 62.1284 54.6196ZM62.757 51.0988H65.4253V53.3672H62.757V51.0988ZM62.1284 61.6607H66.054C66.4021 61.6607 66.6825 61.3814 66.6825 61.0345V57.5138C66.6825 57.1669 66.4021 56.8876 66.054 56.8876H62.1284C61.7802 56.8876 61.4998 57.1669 61.4998 57.5138V61.0345C61.4998 61.3814 61.7802 61.6607 62.1284 61.6607ZM62.757 58.1399H65.4253V60.4083H62.757V58.1399Z" fill="url(#paint1_linear_1333_1145)"/>
<defs>
<linearGradient id="paint0_linear_1333_1145" x1="44.8499" y1="89.1763" x2="44.8499" y2="0.958008" gradientUnits="userSpaceOnUse">
<stop stop-color="#262626"/>
<stop offset="1" stop-color="#1E1E1E"/>
</linearGradient>
<linearGradient id="paint1_linear_1333_1145" x1="45.2335" y1="15.5332" x2="45.2335" y2="74.6011" gradientUnits="userSpaceOnUse">
<stop stop-color="#FF9E00"/>
<stop offset="1" stop-color="#995F00"/>
</linearGradient>
</defs>
</svg>
