<svg width="89" height="89" viewBox="0 0 89 89" fill="none" xmlns="http://www.w3.org/2000/svg">
<rect x="0.592285" y="0.341797" width="88.2183" height="88.2183" rx="19.1779" fill="url(#paint0_linear_1333_1154)"/>
<path d="M73.3073 53.4039C73.1942 53.4042 73.0837 53.3695 72.9907 53.3044C72.8977 53.2393 72.8267 53.1468 72.7871 53.0396C72.1435 51.2814 70.8662 49.8355 69.2123 48.993L61.4263 45.0697C60.9715 45.8621 60.3165 46.5176 59.5287 46.9687C58.741 47.4198 57.8488 47.6504 56.944 47.6367C56.0412 47.6447 55.1525 47.4097 54.3689 46.9557C53.5852 46.5017 52.9346 45.8451 52.4838 45.0529L47.0551 47.7992C46.9245 47.86 46.7755 47.8669 46.6399 47.8184C46.5043 47.7699 46.3927 47.6698 46.3287 47.5394C46.2646 47.409 46.2533 47.2584 46.2969 47.1197C46.3406 46.9809 46.4359 46.8648 46.5626 46.796L52.4838 43.7975C52.5507 43.7637 52.6237 43.744 52.6983 43.7397C52.7729 43.7353 52.8477 43.7462 52.918 43.7719C52.9883 43.7976 53.0528 43.8374 53.1075 43.889C53.1622 43.9406 53.2061 44.0029 53.2363 44.0721C53.5558 44.7985 54.0763 45.4156 54.7348 45.8486C55.3933 46.2817 56.1616 46.5121 56.9467 46.5121C57.7319 46.5121 58.5002 46.2817 59.1587 45.8486C59.8172 45.4156 60.3377 44.7985 60.6571 44.0721C60.6874 44.0029 60.7312 43.9406 60.7859 43.889C60.8406 43.8374 60.9051 43.7976 60.9755 43.7719C61.0458 43.7462 61.1205 43.7353 61.1952 43.7397C61.2698 43.744 61.3428 43.7637 61.4097 43.7975L69.7103 47.9898C71.6138 48.9578 73.0847 50.6198 73.8274 52.6416C73.8588 52.7266 73.8693 52.8179 73.8581 52.9079C73.8469 52.9978 73.8143 53.0837 73.7632 53.1581C73.712 53.2325 73.6438 53.2932 73.5644 53.335C73.485 53.3769 73.3968 53.3986 73.3073 53.3983V53.4039Z" fill="url(#paint1_linear_1333_1154)"/>
<path d="M60.6294 32.5825C60.312 32.5825 60.0018 32.4872 59.7379 32.3086C59.4739 32.13 59.2683 31.8762 59.1468 31.5792C59.0253 31.2822 58.9936 30.9554 59.0555 30.6401C59.1174 30.3248 59.2702 30.0352 59.4947 29.8079C59.7191 29.5806 60.0051 29.4258 60.3164 29.3631C60.6277 29.3003 60.9503 29.3325 61.2436 29.4555C61.5368 29.5786 61.7874 29.7869 61.9638 30.0542C62.1401 30.3215 62.2342 30.6357 62.2342 30.9572C62.2328 31.3878 62.0632 31.8004 61.7626 32.1048C61.4619 32.4093 61.0546 32.5811 60.6294 32.5825ZM60.6294 30.4472C60.5309 30.4472 60.4346 30.4767 60.3527 30.5322C60.2708 30.5876 60.207 30.6664 60.1693 30.7585C60.1316 30.8507 60.1217 30.9521 60.141 31.05C60.1602 31.1478 60.2076 31.2377 60.2773 31.3083C60.3469 31.3788 60.4357 31.4268 60.5323 31.4463C60.6289 31.4658 60.729 31.4558 60.82 31.4176C60.911 31.3794 60.9888 31.3148 61.0435 31.2318C61.0983 31.1489 61.1275 31.0513 61.1275 30.9516C61.126 30.8182 61.0731 30.6908 60.98 30.5965C60.8869 30.5022 60.7611 30.4486 60.6294 30.4472Z" fill="url(#paint2_linear_1333_1154)"/>
<path d="M53.2529 32.5825C52.9356 32.5825 52.6253 32.4872 52.3614 32.3086C52.0975 32.13 51.8918 31.8762 51.7703 31.5792C51.6489 31.2822 51.6171 30.9554 51.679 30.6401C51.7409 30.3248 51.8938 30.0352 52.1182 29.8079C52.3426 29.5806 52.6286 29.4258 52.9399 29.3631C53.2512 29.3003 53.5738 29.3325 53.8671 29.4555C54.1603 29.5786 54.4109 29.7869 54.5873 30.0542C54.7636 30.3215 54.8577 30.6357 54.8577 30.9572C54.8563 31.3878 54.6867 31.8004 54.3861 32.1048C54.0855 32.4093 53.6781 32.5811 53.2529 32.5825ZM53.2529 30.4472C53.1544 30.4472 53.0582 30.4767 52.9763 30.5322C52.8944 30.5876 52.8305 30.6664 52.7928 30.7585C52.7551 30.8507 52.7453 30.9521 52.7645 31.05C52.7837 31.1478 52.8311 31.2377 52.9008 31.3083C52.9704 31.3788 53.0592 31.4268 53.1558 31.4463C53.2524 31.4658 53.3525 31.4558 53.4435 31.4176C53.5345 31.3794 53.6123 31.3148 53.667 31.2318C53.7218 31.1489 53.751 31.0513 53.751 30.9516C53.7495 30.8182 53.6966 30.6908 53.6035 30.5965C53.5104 30.5022 53.3846 30.4486 53.2529 30.4472Z" fill="url(#paint3_linear_1333_1154)"/>
<path d="M65.3774 30.9852C64.5325 30.9837 63.7226 30.6431 63.1251 30.038C62.5277 29.4329 62.1914 28.6127 62.19 27.7569V22.4157C62.19 22.267 62.2483 22.1245 62.352 22.0194C62.4558 21.9143 62.5966 21.8552 62.7433 21.8552C63.5882 21.8567 64.3981 22.1973 64.9956 22.8024C65.593 23.4075 65.9293 24.2277 65.9308 25.0835V30.4191C65.9315 30.4932 65.9177 30.5667 65.8902 30.6353C65.8628 30.704 65.8221 30.7664 65.7707 30.8191C65.7192 30.8717 65.6579 30.9135 65.5904 30.942C65.5229 30.9705 65.4505 30.9852 65.3774 30.9852ZM63.2912 23.0546V27.7569C63.2914 28.2184 63.4409 28.6672 63.7167 29.0346C63.9925 29.4019 64.3795 29.6678 64.8185 29.7914V25.0835C64.817 24.6229 64.667 24.1755 64.3913 23.8092C64.1156 23.443 63.7293 23.178 63.2912 23.0546Z" fill="url(#paint4_linear_1333_1154)"/>
<path d="M46.9279 28.8498C46.7811 28.8498 46.6404 28.7908 46.5366 28.6857C46.4328 28.5806 46.3745 28.438 46.3745 28.2894V26.6864C46.3774 24.4151 47.27 22.2377 48.8563 20.6321C50.4426 19.0265 52.593 18.124 54.8356 18.1225H61.2547C61.7685 18.1203 62.2718 18.2688 62.7041 18.5499C63.1364 18.8311 63.4791 19.2329 63.6909 19.7069C63.9026 20.181 63.9745 20.7069 63.8976 21.2214C63.8208 21.7359 63.5987 22.2168 63.258 22.6062L63.103 22.7856C60.3382 25.9853 56.4608 27.981 52.279 28.3566L46.9832 28.8442L46.9279 28.8498ZM54.8356 19.2434C52.8865 19.2449 51.0176 20.0294 49.6389 21.4247C48.2601 22.8201 47.4842 24.7124 47.4812 26.6864V27.6728L52.1739 27.2413C56.0781 26.8886 59.6967 25.021 62.273 22.0289L62.4279 21.8496C62.6247 21.6217 62.7525 21.3412 62.7959 21.0416C62.8394 20.7421 62.7967 20.4362 62.6729 20.1606C62.5491 19.885 62.3495 19.6514 62.098 19.4877C61.8464 19.3241 61.5537 19.2373 61.2547 19.2378L54.8356 19.2434Z" fill="url(#paint5_linear_1333_1154)"/>
<path d="M57.3535 42.727H55.887C53.871 42.7241 51.9316 41.9447 50.4621 40.5469C48.9926 39.1491 48.103 37.2375 47.9738 35.1999C47.3743 35.0741 46.836 34.7429 46.4495 34.2621C46.063 33.7812 45.8519 33.1801 45.8519 32.5601C45.8519 31.9401 46.063 31.339 46.4495 30.8582C46.836 30.3773 47.3743 30.0461 47.9738 29.9203V28.1436C47.9738 27.995 48.0321 27.8524 48.1358 27.7473C48.2396 27.6422 48.3804 27.5832 48.5271 27.5832C48.6739 27.5832 48.8146 27.6422 48.9184 27.7473C49.0222 27.8524 49.0805 27.995 49.0805 28.1436V30.4247C49.0805 30.5734 49.0222 30.7159 48.9184 30.821C48.8146 30.9262 48.6739 30.9852 48.5271 30.9852C48.1147 30.9852 47.7192 31.1511 47.4276 31.4465C47.136 31.7418 46.9721 32.1424 46.9721 32.5601C46.9721 32.9778 47.136 33.3784 47.4276 33.6737C47.7192 33.9691 48.1147 34.135 48.5271 34.135C48.6739 34.135 48.8146 34.1941 48.9184 34.2992C49.0222 34.4043 49.0805 34.5468 49.0805 34.6955C49.0834 36.5245 49.8009 38.2779 51.0763 39.5728C52.3517 40.8677 54.0812 41.5986 55.887 41.606H57.3535C61.3322 41.606 64.8185 38.3778 64.8185 34.6955C64.8185 34.5468 64.8768 34.4043 64.9806 34.2992C65.0843 34.1941 65.2251 34.135 65.3719 34.135C65.7843 34.135 66.1798 33.9691 66.4714 33.6737C66.763 33.3784 66.9268 32.9778 66.9268 32.5601C66.9268 32.1424 66.763 31.7418 66.4714 31.4465C66.1798 31.1511 65.7843 30.9852 65.3719 30.9852C65.2251 30.9852 65.0843 30.9262 64.9806 30.821C64.8768 30.7159 64.8185 30.5734 64.8185 30.4247C64.8185 30.2761 64.8768 30.1335 64.9806 30.0284C65.0843 29.9233 65.2251 29.8643 65.3719 29.8643C66.032 29.8608 66.6698 30.106 67.1615 30.5521C67.6532 30.9982 67.9637 31.6135 68.0326 32.2785C68.1016 32.9434 67.9241 33.6106 67.5347 34.1504C67.1453 34.6903 66.5717 35.0643 65.9252 35.1999C65.6098 39.2633 61.7417 42.727 57.3535 42.727Z" fill="url(#paint6_linear_1333_1154)"/>
<path d="M56.944 47.6367C55.9434 47.6443 54.9626 47.3541 54.1234 46.8021C53.2843 46.2501 52.6237 45.4606 52.2237 44.5317C52.1912 44.4595 52.1742 44.3812 52.1739 44.3019V41.4379C52.1741 41.3434 52.198 41.2505 52.2432 41.1679C52.2884 41.0852 52.3535 41.0155 52.4325 40.9651C52.5114 40.9148 52.6017 40.8855 52.6948 40.88C52.788 40.8744 52.881 40.8929 52.9652 40.9335C53.8772 41.3763 54.8756 41.6062 55.887 41.606H57.9954C59.0103 41.6 60.0109 41.3625 60.9227 40.9111C61.007 40.8704 61.1 40.852 61.1931 40.8576C61.2862 40.8631 61.3765 40.8924 61.4554 40.9427C61.5344 40.9931 61.5995 41.0628 61.6447 41.1454C61.6899 41.2281 61.7138 41.321 61.7141 41.4155V44.2739C61.7137 44.3532 61.6967 44.4315 61.6642 44.5037C61.2684 45.4378 60.6096 46.2332 59.7701 46.7904C58.9306 47.3476 57.9477 47.6419 56.944 47.6367ZM53.2806 44.1786C53.6115 44.8784 54.131 45.4691 54.7792 45.8826C55.4274 46.2961 56.1779 46.5155 56.944 46.5155C57.71 46.5155 58.4605 46.2961 59.1087 45.8826C59.7569 45.4691 60.2764 44.8784 60.6073 44.1786V42.273C59.7703 42.5732 58.8889 42.7267 58.0009 42.727H55.887C54.999 42.7269 54.1176 42.5733 53.2806 42.273V44.1786Z" fill="url(#paint7_linear_1333_1154)"/>
<path d="M56.944 38.4562C55.9596 38.4547 55.016 38.058 54.32 37.3531C53.624 36.6481 53.2323 35.6924 53.2308 34.6955C53.2308 34.5468 53.2891 34.4043 53.3929 34.2992C53.4967 34.1941 53.6374 34.135 53.7842 34.135C53.931 34.135 54.0717 34.1941 54.1755 34.2992C54.2793 34.4043 54.3376 34.5468 54.3376 34.6955C54.3376 35.3964 54.6125 36.0685 55.1018 36.5641C55.5911 37.0597 56.2547 37.3381 56.9467 37.3381C57.6387 37.3381 58.3024 37.0597 58.7917 36.5641C59.281 36.0685 59.5559 35.3964 59.5559 34.6955C59.5559 34.5468 59.6142 34.4043 59.718 34.2992C59.8217 34.1941 59.9625 34.135 60.1093 34.135C60.256 34.135 60.3968 34.1941 60.5006 34.2992C60.6043 34.4043 60.6626 34.5468 60.6626 34.6955C60.6612 35.6934 60.2687 36.65 59.5715 37.3551C58.8743 38.0602 57.9293 38.4562 56.944 38.4562Z" fill="url(#paint8_linear_1333_1154)"/>
<path d="M19.5247 42.727C19.378 42.727 19.2372 42.6679 19.1335 42.5628C19.0297 42.4577 18.9714 42.3152 18.9714 42.1665V24.0186C18.9743 22.4558 19.5886 20.9578 20.6797 19.8527C21.7708 18.7476 23.2498 18.1255 24.7929 18.1225C24.9396 18.1225 25.0804 18.1815 25.1842 18.2867C25.2879 18.3918 25.3463 18.5343 25.3463 18.683C25.3463 18.8316 25.2879 18.9742 25.1842 19.0793C25.0804 19.1844 24.9396 19.2434 24.7929 19.2434C23.5429 19.2449 22.3445 19.7485 21.4607 20.6437C20.5768 21.5389 20.0796 22.7526 20.0781 24.0186V41.5724C21.0092 41.4553 21.8847 41.0602 22.5933 40.4374C23.3019 39.8145 23.8114 38.9922 24.0569 38.0751C24.0989 37.9362 24.1926 37.8192 24.3182 37.7489C24.4438 37.6786 24.5914 37.6604 24.7299 37.6982C24.8685 37.736 24.9871 37.8268 25.0608 37.9515C25.1345 38.0762 25.1575 38.225 25.1249 38.3665C24.7908 39.6137 24.0622 40.7155 23.0507 41.503C22.0392 42.2906 20.8006 42.7206 19.5247 42.727Z" fill="url(#paint9_linear_1333_1154)"/>
<path d="M49.0362 66.2105C48.8895 66.2105 48.7487 66.1515 48.6449 66.0464C48.5412 65.9413 48.4829 65.7987 48.4829 65.6501V55.6513C48.4876 54.268 48.1096 52.911 47.3917 51.7341C46.6738 50.5573 45.6447 49.6077 44.4211 48.993L36.6351 45.0697C36.1794 45.858 35.5279 46.5118 34.7455 46.9661C33.963 47.4204 33.0768 47.6595 32.1749 47.6595C31.273 47.6595 30.3868 47.4204 29.6043 46.9661C28.8219 46.5118 28.1704 45.858 27.7147 45.0697L19.9287 48.993C18.7041 49.6069 17.6739 50.5562 16.9549 51.7331C16.236 52.91 15.8572 54.2674 15.8614 55.6513V65.6501C15.8614 65.7987 15.8031 65.9413 15.6993 66.0464C15.5955 66.1515 15.4548 66.2105 15.308 66.2105C15.1613 66.2105 15.0205 66.1515 14.9167 66.0464C14.813 65.9413 14.7547 65.7987 14.7547 65.6501V55.6513C14.7494 54.0593 15.1847 52.4977 16.0112 51.1435C16.8377 49.7893 18.0223 48.6967 19.4307 47.9898L27.7313 43.7975C27.7982 43.7637 27.8712 43.744 27.9458 43.7397C28.0205 43.7353 28.0952 43.7462 28.1655 43.7719C28.2359 43.7976 28.3003 43.8374 28.3551 43.889C28.4098 43.9406 28.4536 44.0029 28.4839 44.0721C28.8033 44.7985 29.3238 45.4156 29.9823 45.8486C30.6408 46.2817 31.4091 46.5121 32.1943 46.5121C32.9794 46.5121 33.7477 46.2817 34.4062 45.8486C35.0647 45.4156 35.5852 44.7985 35.9046 44.0721C35.9349 44.0029 35.9788 43.9406 36.0335 43.889C36.0882 43.8374 36.1527 43.7976 36.223 43.7719C36.2933 43.7462 36.3681 43.7353 36.4427 43.7397C36.5173 43.744 36.5903 43.7637 36.6572 43.7975L44.9579 47.9898C46.358 48.703 47.5335 49.7982 48.3519 51.1519C49.1703 52.5057 49.599 54.064 49.5896 55.6513V65.6501C49.5896 65.7987 49.5313 65.9413 49.4275 66.0464C49.3237 66.1515 49.183 66.2105 49.0362 66.2105Z" fill="url(#paint10_linear_1333_1154)"/>
<path d="M73.3073 53.3871C73.1942 53.3874 73.0837 53.3527 72.9907 53.2876C72.8977 53.2224 72.8267 53.13 72.7871 53.0227C72.135 51.2686 70.852 49.8291 69.1957 48.993L61.4097 45.0697C60.9562 45.8596 60.3039 46.5134 59.5193 46.9644C58.7347 47.4154 57.846 47.6474 56.944 47.6367C56.0412 47.6447 55.1525 47.4097 54.3689 46.9557C53.5852 46.5017 52.9346 45.8451 52.4838 45.0529L47.0551 47.7992C46.9245 47.86 46.7755 47.8669 46.6399 47.8184C46.5043 47.7699 46.3927 47.6698 46.3287 47.5394C46.2646 47.409 46.2533 47.2584 46.2969 47.1197C46.3406 46.9809 46.4359 46.8648 46.5626 46.796L52.4838 43.7975C52.5507 43.7637 52.6237 43.744 52.6983 43.7397C52.7729 43.7353 52.8477 43.7462 52.918 43.7719C52.9883 43.7976 53.0528 43.8374 53.1075 43.889C53.1622 43.9406 53.2061 44.0029 53.2363 44.0721C53.5558 44.7985 54.0763 45.4156 54.7348 45.8486C55.3933 46.2817 56.1616 46.5121 56.9467 46.5121C57.7319 46.5121 58.5002 46.2817 59.1587 45.8486C59.8172 45.4156 60.3377 44.7985 60.6571 44.0721C60.6874 44.0029 60.7312 43.9406 60.7859 43.889C60.8406 43.8374 60.9051 43.7976 60.9755 43.7719C61.0458 43.7462 61.1205 43.7353 61.1952 43.7397C61.2698 43.744 61.3428 43.7637 61.4097 43.7975L69.7103 47.9898C71.6141 48.9524 73.0886 50.6079 73.8385 52.6248C73.8698 52.7097 73.8803 52.8011 73.8692 52.891C73.858 52.981 73.8254 53.0668 73.7743 53.1412C73.7231 53.2156 73.6549 53.2764 73.5755 53.3182C73.4961 53.36 73.4078 53.3817 73.3183 53.3814L73.3073 53.3871Z" fill="url(#paint11_linear_1333_1154)"/>
<path d="M35.8604 32.5825C35.543 32.5825 35.2327 32.4872 34.9688 32.3086C34.7049 32.13 34.4992 31.8762 34.3777 31.5792C34.2563 31.2822 34.2245 30.9554 34.2864 30.6401C34.3483 30.3248 34.5012 30.0352 34.7256 29.8079C34.95 29.5806 35.236 29.4258 35.5473 29.3631C35.8586 29.3003 36.1813 29.3325 36.4745 29.4555C36.7677 29.5786 37.0184 29.7869 37.1947 30.0542C37.371 30.3215 37.4652 30.6357 37.4652 30.9572C37.4637 31.3878 37.2942 31.8004 36.9935 32.1048C36.6929 32.4093 36.2855 32.5811 35.8604 32.5825ZM35.8604 30.4472C35.7619 30.4472 35.6656 30.4767 35.5837 30.5322C35.5018 30.5876 35.4379 30.6664 35.4002 30.7585C35.3626 30.8507 35.3527 30.9521 35.3719 31.05C35.3911 31.1478 35.4386 31.2377 35.5082 31.3083C35.5779 31.3788 35.6666 31.4268 35.7632 31.4463C35.8598 31.4658 35.96 31.4558 36.051 31.4176C36.142 31.3794 36.2198 31.3148 36.2745 31.2318C36.3292 31.1489 36.3584 31.0513 36.3584 30.9516C36.357 30.8182 36.304 30.6908 36.2109 30.5965C36.1179 30.5022 35.992 30.4486 35.8604 30.4472Z" fill="url(#paint12_linear_1333_1154)"/>
<path d="M28.4839 32.5825C28.1665 32.5825 27.8562 32.4872 27.5923 32.3086C27.3284 32.13 27.1227 31.8762 27.0013 31.5792C26.8798 31.2822 26.848 30.9554 26.9099 30.6401C26.9719 30.3248 27.1247 30.0352 27.3491 29.8079C27.5736 29.5806 27.8595 29.4258 28.1708 29.3631C28.4821 29.3003 28.8048 29.3325 29.098 29.4555C29.3912 29.5786 29.6419 29.7869 29.8182 30.0542C29.9946 30.3215 30.0887 30.6357 30.0887 30.9572C30.0872 31.3878 29.9177 31.8004 29.617 32.1048C29.3164 32.4093 28.9091 32.5811 28.4839 32.5825ZM28.4839 30.4472C28.3854 30.4472 28.2891 30.4767 28.2072 30.5322C28.1253 30.5876 28.0615 30.6664 28.0238 30.7585C27.9861 30.8507 27.9762 30.9521 27.9954 31.05C28.0146 31.1478 28.0621 31.2377 28.1317 31.3083C28.2014 31.3788 28.2901 31.4268 28.3867 31.4463C28.4833 31.4658 28.5835 31.4558 28.6745 31.4176C28.7655 31.3794 28.8433 31.3148 28.898 31.2318C28.9527 31.1489 28.9819 31.0513 28.9819 30.9516C28.9805 30.8182 28.9276 30.6908 28.8345 30.5965C28.7414 30.5022 28.6155 30.4486 28.4839 30.4472Z" fill="url(#paint13_linear_1333_1154)"/>
<path d="M22.6901 66.2105C22.5433 66.2105 22.4025 66.1515 22.2988 66.0464C22.195 65.9413 22.1367 65.7987 22.1367 65.6501V59.2439C22.1367 59.0953 22.195 58.9527 22.2988 58.8476C22.4025 58.7425 22.5433 58.6835 22.6901 58.6835C22.8368 58.6835 22.9776 58.7425 23.0813 58.8476C23.1851 58.9527 23.2434 59.0953 23.2434 59.2439V65.6501C23.2434 65.7987 23.1851 65.9413 23.0813 66.0464C22.9776 66.1515 22.8368 66.2105 22.6901 66.2105Z" fill="url(#paint14_linear_1333_1154)"/>
<path d="M41.6597 66.2105C41.513 66.2105 41.3722 66.1515 41.2684 66.0464C41.1647 65.9413 41.1064 65.7987 41.1064 65.6501V59.2439C41.1064 59.0953 41.1647 58.9527 41.2684 58.8476C41.3722 58.7425 41.513 58.6835 41.6597 58.6835C41.8065 58.6835 41.9473 58.7425 42.051 58.8476C42.1548 58.9527 42.2131 59.0953 42.2131 59.2439V65.6501C42.2131 65.7987 42.1548 65.9413 42.051 66.0464C41.9473 66.1515 41.8065 66.2105 41.6597 66.2105Z" fill="url(#paint15_linear_1333_1154)"/>
<path d="M42.1854 28.8498H41.7649C40.7414 28.8542 39.7352 28.5836 38.8486 28.0658C37.962 27.5479 37.2269 26.8012 36.7181 25.9018L35.4011 26.7817C34.4456 27.4294 33.3218 27.7752 32.1721 27.7752C31.0224 27.7752 29.8986 27.4294 28.9432 26.7817L27.6372 25.9018C27.1284 26.8012 26.3933 27.5479 25.5067 28.0658C24.6202 28.5836 23.6139 28.8542 22.5904 28.8498H22.1588C22.012 28.8498 21.8713 28.7908 21.7675 28.6857C21.6637 28.5806 21.6054 28.438 21.6054 28.2894V26.6864C21.6084 24.4151 22.5009 22.2377 24.0872 20.6321C25.6735 19.0265 27.8239 18.124 30.0665 18.1225H34.2833C36.5249 18.1255 38.6739 19.0287 40.259 20.6341C41.8441 22.2395 42.7359 24.416 42.7388 26.6864V28.2894C42.7388 28.438 42.6805 28.5806 42.5767 28.6857C42.473 28.7908 42.3322 28.8498 42.1854 28.8498ZM36.9173 24.5286C36.9651 24.5223 37.0134 24.5223 37.0612 24.5286C37.1373 24.5489 37.2082 24.5854 37.2693 24.6357C37.3304 24.6859 37.3802 24.7488 37.4154 24.8201L37.5426 25.0723C37.9223 25.849 38.5046 26.5056 39.2264 26.9709C39.9483 27.4362 40.7822 27.6926 41.6376 27.7121V26.6864C41.6347 24.7124 40.8587 22.8201 39.48 21.4247C38.1013 20.0294 36.2323 19.2449 34.2833 19.2434H30.0665C28.1174 19.2449 26.2485 20.0294 24.8698 21.4247C23.4911 22.8201 22.7151 24.7124 22.7122 26.6864V27.7233C23.5699 27.7073 24.4069 27.4533 25.1319 26.9888C25.8568 26.5243 26.4421 25.8672 26.8238 25.0891L26.9455 24.8369C26.9803 24.7655 27.0298 24.7024 27.0905 24.6519C27.1513 24.6014 27.222 24.5646 27.2979 24.5439C27.3738 24.5232 27.4532 24.5191 27.5308 24.532C27.6084 24.5448 27.6824 24.5742 27.7479 24.6183L29.5685 25.8457C30.3429 26.371 31.2539 26.6515 32.186 26.6515C33.118 26.6515 34.029 26.371 34.8034 25.8457L36.624 24.6183C36.7109 24.5591 36.8126 24.526 36.9173 24.523V24.5286Z" fill="url(#paint16_linear_1333_1154)"/>
<path d="M23.9849 22.1354C23.9048 22.1359 23.8255 22.1187 23.7525 22.085C23.1495 21.7996 22.6332 21.3554 22.2578 20.7986C21.8824 20.2419 21.6617 19.5932 21.6187 18.9204C21.5758 18.2476 21.7122 17.5756 22.0136 16.9745C22.3151 16.3734 22.7705 15.8655 23.3323 15.5038C23.8941 15.1422 24.5415 14.9402 25.2068 14.9189C25.8721 14.8976 26.5309 15.0578 27.1141 15.3828C27.6973 15.7078 28.1835 16.1856 28.5218 16.7662C28.8602 17.3468 29.0382 18.0088 29.0373 18.683C29.0412 18.7389 29.0412 18.7951 29.0373 18.8511C29.0246 18.9778 28.976 19.098 28.8975 19.1975C28.819 19.2969 28.7138 19.3712 28.5946 19.4116C26.9622 19.7565 25.4933 20.6515 24.4276 21.9505C24.3722 22.0129 24.3037 22.062 24.2271 22.094C24.1505 22.126 24.0677 22.1402 23.9849 22.1354ZM25.3241 16.0432C24.7665 16.0423 24.2233 16.223 23.7748 16.5586C23.3263 16.8942 22.9961 17.3669 22.8331 17.907C22.67 18.4471 22.6826 19.026 22.8691 19.5582C23.0556 20.0905 23.406 20.548 23.8687 20.8632C24.9652 19.6699 26.3738 18.8166 27.9305 18.4027C27.8632 17.7512 27.5592 17.1483 27.0775 16.7112C26.5958 16.2741 25.9709 16.034 25.3241 16.0376V16.0432Z" fill="url(#paint17_linear_1333_1154)"/>
<path d="M33.2263 42.727H31.1179C29.102 42.7241 27.1626 41.9447 25.693 40.5469C24.2235 39.1491 23.3339 37.2375 23.2047 35.1999C22.6052 35.0741 22.0669 34.7429 21.6804 34.2621C21.2939 33.7812 21.0829 33.1801 21.0829 32.5601C21.0829 31.9401 21.2939 31.339 21.6804 30.8582C22.0669 30.3773 22.6052 30.0461 23.2047 29.9203V28.2894C23.2047 28.1407 23.263 27.9982 23.3668 27.893C23.4705 27.7879 23.6113 27.7289 23.7581 27.7289C23.9048 27.7289 24.0456 27.7879 24.1494 27.893C24.2531 27.9982 24.3114 28.1407 24.3114 28.2894V30.4247C24.3114 30.5734 24.2531 30.7159 24.1494 30.821C24.0456 30.9262 23.9048 30.9852 23.7581 30.9852C23.5539 30.9852 23.3517 31.0259 23.163 31.1051C22.9743 31.1842 22.8029 31.3002 22.6585 31.4465C22.5141 31.5927 22.3996 31.7663 22.3214 31.9574C22.2433 32.1485 22.2031 32.3533 22.2031 32.5601C22.2031 32.7669 22.2433 32.9717 22.3214 33.1628C22.3996 33.3539 22.5141 33.5275 22.6585 33.6737C22.8029 33.82 22.9743 33.936 23.163 34.0151C23.3517 34.0943 23.5539 34.135 23.7581 34.135C23.9048 34.135 24.0456 34.1941 24.1494 34.2992C24.2531 34.4043 24.3114 34.5468 24.3114 34.6955C24.3143 36.5245 25.0319 38.2779 26.3072 39.5728C27.5826 40.8677 29.3121 41.5986 31.1179 41.606H33.2263C35.036 41.6046 36.7712 40.8762 38.0513 39.5807C39.3315 38.2852 40.052 36.5283 40.055 34.6955C40.055 34.5468 40.1133 34.4043 40.217 34.2992C40.3208 34.1941 40.4616 34.135 40.6083 34.135C41.0207 34.135 41.4163 33.9691 41.7079 33.6737C41.9995 33.3784 42.1633 32.9778 42.1633 32.5601C42.1633 32.1424 41.9995 31.7418 41.7079 31.4465C41.4163 31.1511 41.0207 30.9852 40.6083 30.9852C40.4616 30.9852 40.3208 30.9262 40.217 30.821C40.1133 30.7159 40.055 30.5734 40.055 30.4247V28.2894C40.055 28.1407 40.1133 27.9982 40.217 27.893C40.3208 27.7879 40.4616 27.7289 40.6083 27.7289C40.7551 27.7289 40.8958 27.7879 40.9996 27.893C41.1034 27.9982 41.1617 28.1407 41.1617 28.2894V29.9203C41.7612 30.0461 42.2995 30.3773 42.686 30.8582C43.0725 31.339 43.2835 31.9401 43.2835 32.5601C43.2835 33.1801 43.0725 33.7812 42.686 34.2621C42.2995 34.7429 41.7612 35.0741 41.1617 35.1999C41.0322 37.2414 40.1395 39.1562 38.6653 40.5545C37.1911 41.9529 35.2461 42.7298 33.2263 42.727Z" fill="url(#paint18_linear_1333_1154)"/>
<path d="M32.1749 47.6367C31.1743 47.6443 30.1935 47.3541 29.3544 46.8021C28.5152 46.2501 27.8546 45.4606 27.4546 44.5317C27.4085 44.4534 27.3819 44.3649 27.3771 44.2739V41.4379C27.3774 41.3434 27.4012 41.2505 27.4465 41.1679C27.4917 41.0852 27.5568 41.0155 27.6357 40.9651C27.7147 40.9148 27.805 40.8855 27.8981 40.88C27.9912 40.8744 28.0842 40.8929 28.1685 40.9335C29.0804 41.3763 30.0789 41.6062 31.0903 41.606H33.1986C34.2229 41.6042 35.2334 41.3666 36.1537 40.9111C36.2379 40.8704 36.3309 40.852 36.424 40.8576C36.5172 40.8631 36.6074 40.8924 36.6864 40.9427C36.7653 40.9931 36.8304 41.0628 36.8757 41.1454C36.9209 41.2281 36.9447 41.321 36.945 41.4155V44.2739C36.9446 44.3532 36.9277 44.4315 36.8952 44.5037C36.4994 45.4378 35.8406 46.2332 35.0011 46.7904C34.1616 47.3476 33.1786 47.6419 32.1749 47.6367ZM28.4839 44.1786C28.8148 44.8784 29.3343 45.4691 29.9825 45.8826C30.6307 46.2961 31.3812 46.5155 32.1472 46.5155C32.9133 46.5155 33.6637 46.2961 34.3119 45.8826C34.9601 45.4691 35.4797 44.8784 35.8106 44.1786V42.273C34.9736 42.5732 34.0921 42.7267 33.2042 42.727H31.1179C30.2207 42.7301 29.3296 42.5765 28.4839 42.273V44.1786Z" fill="url(#paint19_linear_1333_1154)"/>
<path d="M32.1749 38.4562C31.1944 38.4488 30.2565 38.0495 29.5652 37.3452C28.874 36.6409 28.4853 35.6886 28.4839 34.6955C28.4839 34.5468 28.5422 34.4043 28.646 34.2992C28.7497 34.1941 28.8905 34.135 29.0373 34.135C29.184 34.135 29.3248 34.1941 29.4286 34.2992C29.5323 34.4043 29.5906 34.5468 29.5906 34.6955C29.5906 35.3964 29.8655 36.0685 30.3548 36.5641C30.8442 37.0597 31.5078 37.3381 32.1998 37.3381C32.8918 37.3381 33.5554 37.0597 34.0448 36.5641C34.5341 36.0685 34.809 35.3964 34.809 34.6955C34.809 34.5468 34.8673 34.4043 34.971 34.2992C35.0748 34.1941 35.2156 34.135 35.3623 34.135C35.5091 34.135 35.6499 34.1941 35.7536 34.2992C35.8574 34.4043 35.9157 34.5468 35.9157 34.6955C35.915 35.1915 35.8175 35.6825 35.6289 36.1403C35.4404 36.5981 35.1643 37.0136 34.8168 37.363C34.4692 37.7125 34.0569 37.9889 33.6035 38.1765C33.1501 38.3641 32.6646 38.4592 32.1749 38.4562Z" fill="url(#paint20_linear_1333_1154)"/>
<path d="M75.1223 74.752H15.0479C14.0624 74.752 13.1173 74.3555 12.4204 73.6497C11.7235 72.9439 11.332 71.9867 11.332 70.9885C11.332 69.9903 11.7235 69.0331 12.4204 68.3273C13.1173 67.6215 14.0624 67.225 15.0479 67.225H18.4733C18.6201 67.225 18.7609 67.284 18.8646 67.3891C18.9684 67.4942 19.0267 67.6368 19.0267 67.7854C19.0267 67.9341 18.9684 68.0766 18.8646 68.1817C18.7609 68.2868 18.6201 68.3459 18.4733 68.3459H15.0479C14.356 68.3459 13.6923 68.6243 13.203 69.1199C12.7137 69.6155 12.4388 70.2876 12.4388 70.9885C12.4388 71.6894 12.7137 72.3615 13.203 72.8571C13.6923 73.3527 14.356 73.6311 15.0479 73.6311H75.1223C75.8143 73.6311 76.478 73.3527 76.9673 72.8571C77.4566 72.3615 77.7315 71.6894 77.7315 70.9885C77.7315 70.2876 77.4566 69.6155 76.9673 69.1199C76.478 68.6243 75.8143 68.3459 75.1223 68.3459H27.9305C27.7837 68.3459 27.643 68.2868 27.5392 68.1817C27.4354 68.0766 27.3771 67.9341 27.3771 67.7854C27.3771 67.6368 27.4354 67.4942 27.5392 67.3891C27.643 67.284 27.7837 67.225 27.9305 67.225H75.0947C76.0802 67.225 77.0253 67.6215 77.7222 68.3273C78.4191 69.0331 78.8106 69.9903 78.8106 70.9885C78.8106 71.9867 78.4191 72.9439 77.7222 73.6497C77.0253 74.3555 76.0802 74.752 75.0947 74.752H75.1223Z" fill="url(#paint21_linear_1333_1154)"/>
<path d="M24.7929 68.3459H21.6331C21.4863 68.3459 21.3456 68.2868 21.2418 68.1817C21.138 68.0766 21.0797 67.9341 21.0797 67.7854C21.0797 67.6368 21.138 67.4942 21.2418 67.3891C21.3456 67.284 21.4863 67.225 21.6331 67.225H24.7929C24.9396 67.225 25.0804 67.284 25.1842 67.3891C25.2879 67.4942 25.3463 67.6368 25.3463 67.7854C25.3463 67.9341 25.2879 68.0766 25.1842 68.1817C25.0804 68.2868 24.9396 68.3459 24.7929 68.3459Z" fill="url(#paint22_linear_1333_1154)"/>
<path d="M71.6969 68.3459H57.9954C57.8486 68.3459 57.7079 68.2868 57.6041 68.1817C57.5003 68.0766 57.442 67.9341 57.442 67.7854V61.3793C57.442 61.2307 57.5003 61.0881 57.6041 60.983C57.7079 60.8779 57.8486 60.8188 57.9954 60.8188H71.6969C72.6825 60.8188 73.6276 61.2154 74.3245 61.9212C75.0213 62.6269 75.4128 63.5842 75.4128 64.5824C75.4128 65.5805 75.0213 66.5378 74.3245 67.2436C73.6276 67.9494 72.6825 68.3459 71.6969 68.3459ZM58.5487 67.225H71.6969C72.3889 67.225 73.0526 66.9466 73.5419 66.451C74.0312 65.9554 74.3061 65.2832 74.3061 64.5824C74.3061 63.8815 74.0312 63.2094 73.5419 62.7138C73.0526 62.2182 72.3889 61.9398 71.6969 61.9398H58.5487V67.225Z" fill="url(#paint23_linear_1333_1154)"/>
<path d="M75.1223 61.9398H61.4208C61.274 61.9398 61.1332 61.8807 61.0295 61.7756C60.9257 61.6705 60.8674 61.5279 60.8674 61.3793V54.9732C60.8674 54.8245 60.9257 54.682 61.0295 54.5769C61.1332 54.4718 61.274 54.4127 61.4208 54.4127C61.5675 54.4127 61.7083 54.4718 61.8121 54.5769C61.9158 54.682 61.9741 54.8245 61.9741 54.9732V60.8188H75.1223C75.8143 60.8188 76.478 60.5404 76.9673 60.0448C77.4566 59.5493 77.7315 58.8771 77.7315 58.1762C77.7315 57.4754 77.4566 56.8032 76.9673 56.3076C76.478 55.8121 75.8143 55.5336 75.1223 55.5336H65.1892C65.0425 55.5336 64.9017 55.4746 64.798 55.3695C64.6942 55.2644 64.6359 55.1218 64.6359 54.9732C64.6359 54.8245 64.6942 54.682 64.798 54.5769C64.9017 54.4718 65.0425 54.4127 65.1892 54.4127H75.1223C76.1078 54.4127 77.053 54.8092 77.7499 55.515C78.4467 56.2208 78.8382 57.1781 78.8382 58.1762C78.8382 59.1744 78.4467 60.1317 77.7499 60.8375C77.053 61.5433 76.1078 61.9398 75.1223 61.9398Z" fill="url(#paint24_linear_1333_1154)"/>
<defs>
<linearGradient id="paint0_linear_1333_1154" x1="44.7015" y1="88.5601" x2="44.7015" y2="0.341797" gradientUnits="userSpaceOnUse">
<stop stop-color="#262626"/>
<stop offset="1" stop-color="#1E1E1E"/>
</linearGradient>
<linearGradient id="paint1_linear_1333_1154" x1="45.0851" y1="14.917" x2="45.0851" y2="74.752" gradientUnits="userSpaceOnUse">
<stop stop-color="#FF9E00"/>
<stop offset="1" stop-color="#995F00"/>
</linearGradient>
<linearGradient id="paint2_linear_1333_1154" x1="45.0851" y1="14.917" x2="45.0851" y2="74.752" gradientUnits="userSpaceOnUse">
<stop stop-color="#FF9E00"/>
<stop offset="1" stop-color="#995F00"/>
</linearGradient>
<linearGradient id="paint3_linear_1333_1154" x1="45.0851" y1="14.917" x2="45.0851" y2="74.752" gradientUnits="userSpaceOnUse">
<stop stop-color="#FF9E00"/>
<stop offset="1" stop-color="#995F00"/>
</linearGradient>
<linearGradient id="paint4_linear_1333_1154" x1="45.0851" y1="14.917" x2="45.0851" y2="74.752" gradientUnits="userSpaceOnUse">
<stop stop-color="#FF9E00"/>
<stop offset="1" stop-color="#995F00"/>
</linearGradient>
<linearGradient id="paint5_linear_1333_1154" x1="45.0851" y1="14.917" x2="45.0851" y2="74.752" gradientUnits="userSpaceOnUse">
<stop stop-color="#FF9E00"/>
<stop offset="1" stop-color="#995F00"/>
</linearGradient>
<linearGradient id="paint6_linear_1333_1154" x1="45.0851" y1="14.917" x2="45.0851" y2="74.752" gradientUnits="userSpaceOnUse">
<stop stop-color="#FF9E00"/>
<stop offset="1" stop-color="#995F00"/>
</linearGradient>
<linearGradient id="paint7_linear_1333_1154" x1="45.0851" y1="14.917" x2="45.0851" y2="74.752" gradientUnits="userSpaceOnUse">
<stop stop-color="#FF9E00"/>
<stop offset="1" stop-color="#995F00"/>
</linearGradient>
<linearGradient id="paint8_linear_1333_1154" x1="45.0851" y1="14.917" x2="45.0851" y2="74.752" gradientUnits="userSpaceOnUse">
<stop stop-color="#FF9E00"/>
<stop offset="1" stop-color="#995F00"/>
</linearGradient>
<linearGradient id="paint9_linear_1333_1154" x1="45.0851" y1="14.917" x2="45.0851" y2="74.752" gradientUnits="userSpaceOnUse">
<stop stop-color="#FF9E00"/>
<stop offset="1" stop-color="#995F00"/>
</linearGradient>
<linearGradient id="paint10_linear_1333_1154" x1="45.0851" y1="14.917" x2="45.0851" y2="74.752" gradientUnits="userSpaceOnUse">
<stop stop-color="#FF9E00"/>
<stop offset="1" stop-color="#995F00"/>
</linearGradient>
<linearGradient id="paint11_linear_1333_1154" x1="45.0851" y1="14.917" x2="45.0851" y2="74.752" gradientUnits="userSpaceOnUse">
<stop stop-color="#FF9E00"/>
<stop offset="1" stop-color="#995F00"/>
</linearGradient>
<linearGradient id="paint12_linear_1333_1154" x1="45.0851" y1="14.917" x2="45.0851" y2="74.752" gradientUnits="userSpaceOnUse">
<stop stop-color="#FF9E00"/>
<stop offset="1" stop-color="#995F00"/>
</linearGradient>
<linearGradient id="paint13_linear_1333_1154" x1="45.0851" y1="14.917" x2="45.0851" y2="74.752" gradientUnits="userSpaceOnUse">
<stop stop-color="#FF9E00"/>
<stop offset="1" stop-color="#995F00"/>
</linearGradient>
<linearGradient id="paint14_linear_1333_1154" x1="45.0851" y1="14.917" x2="45.0851" y2="74.752" gradientUnits="userSpaceOnUse">
<stop stop-color="#FF9E00"/>
<stop offset="1" stop-color="#995F00"/>
</linearGradient>
<linearGradient id="paint15_linear_1333_1154" x1="45.0851" y1="14.917" x2="45.0851" y2="74.752" gradientUnits="userSpaceOnUse">
<stop stop-color="#FF9E00"/>
<stop offset="1" stop-color="#995F00"/>
</linearGradient>
<linearGradient id="paint16_linear_1333_1154" x1="45.0851" y1="14.917" x2="45.0851" y2="74.752" gradientUnits="userSpaceOnUse">
<stop stop-color="#FF9E00"/>
<stop offset="1" stop-color="#995F00"/>
</linearGradient>
<linearGradient id="paint17_linear_1333_1154" x1="45.0851" y1="14.917" x2="45.0851" y2="74.752" gradientUnits="userSpaceOnUse">
<stop stop-color="#FF9E00"/>
<stop offset="1" stop-color="#995F00"/>
</linearGradient>
<linearGradient id="paint18_linear_1333_1154" x1="45.0851" y1="14.917" x2="45.0851" y2="74.752" gradientUnits="userSpaceOnUse">
<stop stop-color="#FF9E00"/>
<stop offset="1" stop-color="#995F00"/>
</linearGradient>
<linearGradient id="paint19_linear_1333_1154" x1="45.0851" y1="14.917" x2="45.0851" y2="74.752" gradientUnits="userSpaceOnUse">
<stop stop-color="#FF9E00"/>
<stop offset="1" stop-color="#995F00"/>
</linearGradient>
<linearGradient id="paint20_linear_1333_1154" x1="45.0851" y1="14.917" x2="45.0851" y2="74.752" gradientUnits="userSpaceOnUse">
<stop stop-color="#FF9E00"/>
<stop offset="1" stop-color="#995F00"/>
</linearGradient>
<linearGradient id="paint21_linear_1333_1154" x1="45.0851" y1="14.917" x2="45.0851" y2="74.752" gradientUnits="userSpaceOnUse">
<stop stop-color="#FF9E00"/>
<stop offset="1" stop-color="#995F00"/>
</linearGradient>
<linearGradient id="paint22_linear_1333_1154" x1="45.0851" y1="14.917" x2="45.0851" y2="74.752" gradientUnits="userSpaceOnUse">
<stop stop-color="#FF9E00"/>
<stop offset="1" stop-color="#995F00"/>
</linearGradient>
<linearGradient id="paint23_linear_1333_1154" x1="45.0851" y1="14.917" x2="45.0851" y2="74.752" gradientUnits="userSpaceOnUse">
<stop stop-color="#FF9E00"/>
<stop offset="1" stop-color="#995F00"/>
</linearGradient>
<linearGradient id="paint24_linear_1333_1154" x1="45.0851" y1="14.917" x2="45.0851" y2="74.752" gradientUnits="userSpaceOnUse">
<stop stop-color="#FF9E00"/>
<stop offset="1" stop-color="#995F00"/>
</linearGradient>
</defs>
</svg>
