<svg width="169" height="171" viewBox="0 0 169 171" fill="none" xmlns="http://www.w3.org/2000/svg">
<g filter="url(#filter0_dddd_1194_1010)">
<path d="M117.688 61.343C117.688 30.2248 92.6166 5 61.6945 5C30.7584 5.007 5.6875 30.2249 5.6875 61.35C5.6875 89.4655 26.1669 112.773 52.9316 117V77.6299H38.7234V61.35H52.9456V48.9265C52.9456 34.8093 61.3095 27.0122 74.0969 27.0122C80.2282 27.0122 86.6324 28.1111 86.6324 28.1111V41.9694H79.5703C72.6201 41.9694 70.4504 46.3158 70.4504 50.7743V61.343H85.9745L83.4968 77.6229H70.4434V116.993C97.2081 112.766 117.688 89.4585 117.688 61.343Z" fill="#6200E1"/>
</g>
<defs>
<filter id="filter0_dddd_1194_1010" x="0.6875" y="0" width="168" height="171" filterUnits="userSpaceOnUse" color-interpolation-filters="sRGB">
<feFlood flood-opacity="0" result="BackgroundImageFix"/>
<feColorMatrix in="SourceAlpha" type="matrix" values="0 0 0 0 0 0 0 0 0 0 0 0 0 0 0 0 0 0 127 0" result="hardAlpha"/>
<feOffset dx="2" dy="2"/>
<feGaussianBlur stdDeviation="3.5"/>
<feColorMatrix type="matrix" values="0 0 0 0 0.14902 0 0 0 0 0.14902 0 0 0 0 0.14902 0 0 0 0.14 0"/>
<feBlend mode="normal" in2="BackgroundImageFix" result="effect1_dropShadow_1194_1010"/>
<feColorMatrix in="SourceAlpha" type="matrix" values="0 0 0 0 0 0 0 0 0 0 0 0 0 0 0 0 0 0 127 0" result="hardAlpha"/>
<feOffset dx="8" dy="9"/>
<feGaussianBlur stdDeviation="6"/>
<feColorMatrix type="matrix" values="0 0 0 0 0.14902 0 0 0 0 0.14902 0 0 0 0 0.14902 0 0 0 0.12 0"/>
<feBlend mode="normal" in2="effect1_dropShadow_1194_1010" result="effect2_dropShadow_1194_1010"/>
<feColorMatrix in="SourceAlpha" type="matrix" values="0 0 0 0 0 0 0 0 0 0 0 0 0 0 0 0 0 0 127 0" result="hardAlpha"/>
<feOffset dx="18" dy="20"/>
<feGaussianBlur stdDeviation="8"/>
<feColorMatrix type="matrix" values="0 0 0 0 0.14902 0 0 0 0 0.14902 0 0 0 0 0.14902 0 0 0 0.07 0"/>
<feBlend mode="normal" in2="effect2_dropShadow_1194_1010" result="effect3_dropShadow_1194_1010"/>
<feColorMatrix in="SourceAlpha" type="matrix" values="0 0 0 0 0 0 0 0 0 0 0 0 0 0 0 0 0 0 127 0" result="hardAlpha"/>
<feOffset dx="32" dy="35"/>
<feGaussianBlur stdDeviation="9.5"/>
<feColorMatrix type="matrix" values="0 0 0 0 0.14902 0 0 0 0 0.14902 0 0 0 0 0.14902 0 0 0 0.02 0"/>
<feBlend mode="normal" in2="effect3_dropShadow_1194_1010" result="effect4_dropShadow_1194_1010"/>
<feBlend mode="normal" in="SourceGraphic" in2="effect4_dropShadow_1194_1010" result="shape"/>
</filter>
</defs>
</svg>
