<svg width="169" height="171" viewBox="0 0 169 171" fill="none" xmlns="http://www.w3.org/2000/svg">
<g filter="url(#filter0_dddd_1088_1050)">
<path d="M61.5625 5C46.3655 5 44.4545 5.07 38.4835 5.336C32.5125 5.616 28.4455 6.554 24.8825 7.94C21.1434 9.34228 17.7575 11.5478 14.9635 14.401C12.1103 17.195 9.90478 20.5809 8.5025 24.32C7.1165 27.876 6.1715 31.95 5.8985 37.9C5.6325 43.885 5.5625 45.789 5.5625 61.007C5.5625 76.211 5.6325 78.115 5.8985 84.086C6.1785 90.05 7.1165 94.117 8.5025 97.68C9.9375 101.362 11.8485 104.484 14.9635 107.599C18.0715 110.714 21.1935 112.632 24.8755 114.06C28.4455 115.446 32.5055 116.391 38.4695 116.664C44.4475 116.93 46.3515 117 61.5625 117C76.7735 117 78.6705 116.93 84.6485 116.664C90.6055 116.384 94.6865 115.446 98.2495 114.06C101.986 112.657 105.37 110.451 108.161 107.599C111.276 104.484 113.188 101.362 114.622 97.68C116.002 94.117 116.946 90.05 117.227 84.086C117.493 78.115 117.562 76.211 117.562 61C117.562 45.789 117.493 43.885 117.227 37.907C116.946 31.95 116.002 27.876 114.622 24.32C113.22 20.5809 111.015 17.195 108.161 14.401C105.368 11.5478 101.982 9.34228 98.2425 7.94C94.6725 6.554 90.5985 5.609 84.6415 5.336C78.6635 5.07 76.7665 5 61.5485 5H61.5625ZM56.5435 15.094H61.5695C76.5215 15.094 78.2925 15.143 84.1935 15.416C89.6535 15.661 92.6215 16.578 94.5955 17.341C97.2065 18.356 99.0755 19.574 101.035 21.534C102.995 23.494 104.207 25.356 105.222 27.974C105.992 29.941 106.901 32.909 107.146 38.369C107.42 44.27 107.476 46.041 107.476 60.986C107.476 75.931 107.42 77.709 107.146 83.61C106.901 89.07 105.985 92.031 105.222 94.005C104.317 96.4333 102.885 98.6305 101.028 100.438C99.0685 102.398 97.2065 103.609 94.5885 104.624C92.6285 105.394 89.6605 106.304 84.1935 106.556C78.2925 106.822 76.5215 106.885 61.5695 106.885C46.6175 106.885 44.8395 106.822 38.9385 106.556C33.4785 106.304 30.5175 105.394 28.5435 104.624C26.1133 103.723 23.9137 102.293 22.1035 100.438C20.2434 98.6292 18.8088 96.4295 17.9035 93.998C17.1405 92.031 16.2235 89.063 15.9785 83.603C15.7125 77.702 15.6565 75.931 15.6565 60.972C15.6565 46.013 15.7125 44.256 15.9785 38.355C16.2305 32.895 17.1405 29.927 17.9105 27.953C18.9255 25.342 20.1435 23.473 22.1035 21.513C24.0635 19.553 25.9255 18.342 28.5435 17.327C30.5175 16.557 33.4785 15.647 38.9385 15.395C44.1045 15.157 46.1065 15.087 56.5435 15.08V15.094ZM91.4595 24.39C90.577 24.39 89.7032 24.5638 88.8879 24.9015C88.0726 25.2392 87.3317 25.7342 86.7077 26.3582C86.0837 26.9823 85.5887 27.7231 85.251 28.5384C84.9133 29.3537 84.7395 30.2275 84.7395 31.11C84.7395 31.9925 84.9133 32.8663 85.251 33.6816C85.5887 34.4969 86.0837 35.2377 86.7077 35.8618C87.3317 36.4858 88.0726 36.9808 88.8879 37.3185C89.7032 37.6562 90.577 37.83 91.4595 37.83C93.2418 37.83 94.951 37.122 96.2113 35.8618C97.4715 34.6015 98.1795 32.8923 98.1795 31.11C98.1795 29.3277 97.4715 27.6185 96.2113 26.3582C94.951 25.098 93.2418 24.39 91.4595 24.39ZM61.5695 32.244C57.755 32.1845 53.9668 32.8844 50.4253 34.303C46.8839 35.7216 43.6601 37.8305 40.9416 40.507C38.223 43.1834 36.064 46.374 34.5904 49.8928C33.1167 53.4117 32.3578 57.1885 32.3578 61.0035C32.3578 64.8185 33.1167 68.5953 34.5904 72.1142C36.064 75.633 38.223 78.8236 40.9416 81.5C43.6601 84.1765 46.8839 86.2854 50.4253 87.704C53.9668 89.1226 57.755 89.8225 61.5695 89.763C69.1193 89.6452 76.32 86.5634 81.6173 81.1828C86.9147 75.8021 89.8838 68.5542 89.8838 61.0035C89.8838 53.4528 86.9147 46.2049 81.6173 40.8242C76.32 35.4436 69.1193 32.3618 61.5695 32.244ZM61.5695 42.331C64.0212 42.331 66.4488 42.8139 68.7138 43.7521C70.9788 44.6903 73.0369 46.0654 74.7705 47.799C76.5041 49.5326 77.8792 51.5907 78.8174 53.8557C79.7556 56.1207 80.2385 58.5484 80.2385 61C80.2385 63.4516 79.7556 65.8793 78.8174 68.1443C77.8792 70.4093 76.5041 72.4674 74.7705 74.201C73.0369 75.9346 70.9788 77.3097 68.7138 78.2479C66.4488 79.1861 64.0212 79.669 61.5695 79.669C56.6182 79.669 51.8696 77.7021 48.3685 74.201C44.8674 70.6999 42.9005 65.9513 42.9005 61C42.9005 56.0487 44.8674 51.3001 48.3685 47.799C51.8696 44.2979 56.6182 42.331 61.5695 42.331Z" fill="#6200E1"/>
</g>
<defs>
<filter id="filter0_dddd_1088_1050" x="0.5625" y="0" width="168" height="171" filterUnits="userSpaceOnUse" color-interpolation-filters="sRGB">
<feFlood flood-opacity="0" result="BackgroundImageFix"/>
<feColorMatrix in="SourceAlpha" type="matrix" values="0 0 0 0 0 0 0 0 0 0 0 0 0 0 0 0 0 0 127 0" result="hardAlpha"/>
<feOffset dx="2" dy="2"/>
<feGaussianBlur stdDeviation="3.5"/>
<feColorMatrix type="matrix" values="0 0 0 0 0.14902 0 0 0 0 0.14902 0 0 0 0 0.14902 0 0 0 0.14 0"/>
<feBlend mode="normal" in2="BackgroundImageFix" result="effect1_dropShadow_1088_1050"/>
<feColorMatrix in="SourceAlpha" type="matrix" values="0 0 0 0 0 0 0 0 0 0 0 0 0 0 0 0 0 0 127 0" result="hardAlpha"/>
<feOffset dx="8" dy="9"/>
<feGaussianBlur stdDeviation="6"/>
<feColorMatrix type="matrix" values="0 0 0 0 0.14902 0 0 0 0 0.14902 0 0 0 0 0.14902 0 0 0 0.12 0"/>
<feBlend mode="normal" in2="effect1_dropShadow_1088_1050" result="effect2_dropShadow_1088_1050"/>
<feColorMatrix in="SourceAlpha" type="matrix" values="0 0 0 0 0 0 0 0 0 0 0 0 0 0 0 0 0 0 127 0" result="hardAlpha"/>
<feOffset dx="18" dy="20"/>
<feGaussianBlur stdDeviation="8"/>
<feColorMatrix type="matrix" values="0 0 0 0 0.14902 0 0 0 0 0.14902 0 0 0 0 0.14902 0 0 0 0.07 0"/>
<feBlend mode="normal" in2="effect2_dropShadow_1088_1050" result="effect3_dropShadow_1088_1050"/>
<feColorMatrix in="SourceAlpha" type="matrix" values="0 0 0 0 0 0 0 0 0 0 0 0 0 0 0 0 0 0 127 0" result="hardAlpha"/>
<feOffset dx="32" dy="35"/>
<feGaussianBlur stdDeviation="9.5"/>
<feColorMatrix type="matrix" values="0 0 0 0 0.14902 0 0 0 0 0.14902 0 0 0 0 0.14902 0 0 0 0.02 0"/>
<feBlend mode="normal" in2="effect3_dropShadow_1088_1050" result="effect4_dropShadow_1088_1050"/>
<feBlend mode="normal" in="SourceGraphic" in2="effect4_dropShadow_1088_1050" result="shape"/>
</filter>
</defs>
</svg>
