<svg width="169" height="137" viewBox="0 0 169 137" fill="none" xmlns="http://www.w3.org/2000/svg">
<g filter="url(#filter0_dddd_1194_1014)">
<path d="M62.298 5H62.9211C68.6754 5.02082 97.8323 5.22903 105.694 7.32494C108.07 7.9646 110.236 9.21142 111.974 10.9408C113.713 12.6702 114.963 14.8215 115.599 17.1799C116.306 19.8172 116.803 23.308 117.139 26.91L117.209 27.6317L117.363 29.4362L117.419 30.1579C117.875 36.5012 117.931 42.4419 117.938 43.7397V44.2603C117.931 45.6066 117.868 51.9499 117.363 58.5569L117.307 59.2856L117.244 60.0074C116.894 63.9771 116.376 67.9191 115.599 70.8201C114.963 73.1785 113.713 75.3298 111.974 77.0592C110.236 78.7886 108.07 80.0354 105.694 80.6751C97.5732 82.8404 66.7083 82.9931 62.431 83H61.437C59.2738 83 50.3273 82.9584 40.9467 82.6391L39.7566 82.5975L39.1476 82.5697L36.7534 82.4725C28.9829 82.1325 21.5835 81.5842 18.1743 80.6681C15.7985 80.0291 13.6334 78.7833 11.8952 77.0552C10.157 75.3271 8.90655 73.1772 8.26865 70.8201C7.4916 67.9261 6.97356 63.9771 6.62354 60.0074L6.51154 58.5569C6.16406 53.8544 5.97261 49.1418 5.9375 44.4268L5.9375 43.5732C5.9515 42.0811 6.0075 36.9245 6.38553 31.2336L6.43453 30.5188L6.45553 30.1579L6.51154 29.4362L6.66555 27.6317L6.73555 26.91C7.07157 23.308 7.5686 19.8102 8.27565 17.1799C8.91248 14.8215 10.1625 12.6702 11.9008 10.9408C13.639 9.21142 15.8047 7.9646 18.1813 7.32494C21.5905 6.42273 28.9899 5.86751 36.7604 5.52051L37.9505 5.47193L39.7566 5.40947L40.9537 5.36089C47.6161 5.14854 54.2812 5.03055 60.9469 5.00694L62.298 5ZM50.7403 27.2778V60.7153L79.8411 44.0035L50.7403 27.2778Z" fill="#6200E1"/>
</g>
<defs>
<filter id="filter0_dddd_1194_1014" x="0.9375" y="0" width="168" height="137" filterUnits="userSpaceOnUse" color-interpolation-filters="sRGB">
<feFlood flood-opacity="0" result="BackgroundImageFix"/>
<feColorMatrix in="SourceAlpha" type="matrix" values="0 0 0 0 0 0 0 0 0 0 0 0 0 0 0 0 0 0 127 0" result="hardAlpha"/>
<feOffset dx="2" dy="2"/>
<feGaussianBlur stdDeviation="3.5"/>
<feColorMatrix type="matrix" values="0 0 0 0 0.14902 0 0 0 0 0.14902 0 0 0 0 0.14902 0 0 0 0.14 0"/>
<feBlend mode="normal" in2="BackgroundImageFix" result="effect1_dropShadow_1194_1014"/>
<feColorMatrix in="SourceAlpha" type="matrix" values="0 0 0 0 0 0 0 0 0 0 0 0 0 0 0 0 0 0 127 0" result="hardAlpha"/>
<feOffset dx="8" dy="9"/>
<feGaussianBlur stdDeviation="6"/>
<feColorMatrix type="matrix" values="0 0 0 0 0.14902 0 0 0 0 0.14902 0 0 0 0 0.14902 0 0 0 0.12 0"/>
<feBlend mode="normal" in2="effect1_dropShadow_1194_1014" result="effect2_dropShadow_1194_1014"/>
<feColorMatrix in="SourceAlpha" type="matrix" values="0 0 0 0 0 0 0 0 0 0 0 0 0 0 0 0 0 0 127 0" result="hardAlpha"/>
<feOffset dx="18" dy="20"/>
<feGaussianBlur stdDeviation="8"/>
<feColorMatrix type="matrix" values="0 0 0 0 0.14902 0 0 0 0 0.14902 0 0 0 0 0.14902 0 0 0 0.07 0"/>
<feBlend mode="normal" in2="effect2_dropShadow_1194_1014" result="effect3_dropShadow_1194_1014"/>
<feColorMatrix in="SourceAlpha" type="matrix" values="0 0 0 0 0 0 0 0 0 0 0 0 0 0 0 0 0 0 127 0" result="hardAlpha"/>
<feOffset dx="32" dy="35"/>
<feGaussianBlur stdDeviation="9.5"/>
<feColorMatrix type="matrix" values="0 0 0 0 0.14902 0 0 0 0 0.14902 0 0 0 0 0.14902 0 0 0 0.02 0"/>
<feBlend mode="normal" in2="effect3_dropShadow_1194_1014" result="effect4_dropShadow_1194_1014"/>
<feBlend mode="normal" in="SourceGraphic" in2="effect4_dropShadow_1194_1014" result="shape"/>
</filter>
</defs>
</svg>
