<svg width="489" height="521" viewBox="0 0 489 521" fill="none" xmlns="http://www.w3.org/2000/svg">
<path d="M95.9686 30.2162H136.699V13.7801C136.72 6.1909 143.222 0.0199393 151.271 0H166.818C174.867 0.0399451 181.39 6.17096 181.411 13.7801V30.2162H222.121L222.142 13.7801C222.163 6.17096 228.686 0.0398786 236.735 0H252.282C260.331 0.01997 266.833 6.1909 266.833 13.7801V30.2162H307.563L307.585 13.7801C307.585 6.1909 314.108 0.0199393 322.157 0H337.703C345.752 0.0399451 352.276 6.17096 352.297 13.7801V30.2162H393.006V13.7801C393.027 6.17096 399.551 0.0398786 407.6 0H423.146C431.195 0.01997 437.719 6.1909 437.719 13.7801V30.2162H456.252C474.043 30.2761 488.446 43.8767 488.489 60.6523V490.564C488.446 507.339 474.043 520.94 456.252 521H32.7468C14.9553 520.94 0.531063 507.339 0.48877 490.564V60.6523C0.531128 43.8563 14.9553 30.2561 32.7468 30.2162H51.2589L51.2801 13.7801C51.3013 6.1909 57.8036 0.0398786 65.8524 0H81.3991C89.4479 0.01997 95.9714 6.1909 95.9714 13.7801L95.9686 30.2162ZM393.008 42.4582H352.299V38.0831C352.278 45.6723 345.754 51.8234 337.706 51.8433H322.159C314.11 51.8233 307.587 45.6723 307.587 38.0831V42.4582H266.835V38.0831C266.835 45.6723 260.333 51.8234 252.284 51.8433H236.737C228.689 51.8233 222.165 45.6723 222.144 38.0831V42.4582H181.414V38.0831C181.392 45.6723 174.869 51.8234 166.82 51.8433H151.273C143.225 51.8233 136.722 45.6723 136.701 38.0831V42.4582H95.9708V38.0831C95.9708 45.6723 89.4473 51.8234 81.3985 51.8433H65.8518C57.803 51.8233 51.2795 45.6723 51.2583 38.0831V42.4582H32.7462C22.1137 42.4981 13.4929 50.6266 13.4717 60.652V161.978C13.6835 161.978 13.9165 161.938 14.1283 161.938H475.508V60.6519C475.487 50.6266 466.887 42.498 456.254 42.4581H437.721V38.0831C437.721 45.6723 431.198 51.8233 423.149 51.8432H407.602C399.553 51.8233 393.03 45.6723 393.009 38.0831L393.008 42.4582ZM423.148 12.2619H407.602C406.712 12.2619 405.992 12.9409 405.971 13.7797V38.083C405.971 38.9218 406.712 39.6009 407.602 39.6009H423.148C424.017 39.5809 424.716 38.9019 424.716 38.083V13.7797C424.716 12.9609 424.017 12.2818 423.148 12.2619ZM337.705 12.2619H322.158C321.289 12.2818 320.59 12.9609 320.569 13.7797V38.083C320.569 38.9019 321.268 39.5809 322.158 39.6009H337.705C338.594 39.6009 339.314 38.9219 339.314 38.083V13.7797C339.314 12.9409 338.594 12.2619 337.705 12.2619ZM252.282 12.2619H236.736C235.846 12.2619 235.126 12.9409 235.105 13.7797V38.083C235.105 38.9218 235.825 39.6009 236.736 39.6009H252.282C253.151 39.5809 253.85 38.9019 253.85 38.083V13.7797C253.829 12.9609 253.151 12.2818 252.282 12.2619ZM166.839 12.2619H151.271C150.402 12.2818 149.724 12.9609 149.703 13.7797V38.083C149.703 38.9019 150.402 39.5809 151.271 39.6009H166.817C167.728 39.6009 168.448 38.9219 168.448 38.083V13.7797C168.427 12.9409 167.707 12.2619 166.817 12.2619H166.839ZM81.4164 12.2619H65.8485C64.959 12.2619 64.2388 12.9409 64.2388 13.7797V38.083C64.2388 38.9218 64.9589 39.6009 65.8485 39.6009H81.3952C82.2848 39.5809 82.9838 38.9019 82.9838 38.083V13.7797C82.9626 12.9609 82.2637 12.2818 81.3952 12.2619H81.4164ZM14.1262 174.158C13.9144 174.178 13.6814 174.178 13.4696 174.158V490.565C13.4908 500.59 22.1116 508.699 32.7441 508.739H456.249C466.882 508.699 475.481 500.57 475.502 490.565V174.158H14.1262Z" fill="white"/>
<path d="M393.008 42.4582H352.299V38.0831C352.278 45.6723 345.754 51.8234 337.706 51.8433H322.159C314.11 51.8233 307.587 45.6723 307.587 38.0831V42.4582H266.835V38.0831C266.835 45.6723 260.333 51.8234 252.284 51.8433H236.737C228.689 51.8233 222.165 45.6723 222.144 38.0831V42.4582H181.414V38.0831C181.392 45.6723 174.869 51.8234 166.82 51.8433H151.273C143.225 51.8233 136.722 45.6723 136.701 38.0831V42.4582H95.9708V38.0831C95.9708 45.6723 89.4473 51.8234 81.3985 51.8433H65.8518C57.803 51.8233 51.2795 45.6723 51.2583 38.0831V42.4582H32.7462C22.1137 42.4981 13.4929 50.6266 13.4717 60.652V161.978C13.6835 161.978 13.9165 161.938 14.1283 161.938H475.508V60.6519C475.487 50.6266 466.887 42.498 456.254 42.4581H437.721V38.0831C437.721 45.6723 431.198 51.8233 423.149 51.8432H407.602C399.553 51.8233 393.03 45.6723 393.009 38.0831L393.008 42.4582Z" fill="white"/>
</svg>
